<svg width="250" height="250" viewBox="0 0 250 250" fill="none" xmlns="http://www.w3.org/2000/svg">
<g clip-path="url(#clip0_522_110)">
<path d="M225.578 194.826C221.789 203.56 217.305 211.6 212.11 218.992C205.028 229.069 199.23 236.044 194.761 239.917C187.834 246.275 180.412 249.531 172.464 249.716C166.759 249.716 159.878 248.096 151.868 244.809C143.833 241.537 136.448 239.917 129.695 239.917C122.614 239.917 115.018 241.537 106.895 244.809C98.7582 248.096 92.2037 249.809 87.1923 249.979C79.5709 250.303 71.9742 246.954 64.3914 239.917C59.5517 235.704 53.4982 228.482 46.2463 218.251C38.4656 207.325 32.0688 194.656 27.0575 180.212C21.6905 164.611 19 149.503 19 134.877C19 118.123 22.6275 103.673 29.8933 91.5636C35.6035 81.837 43.2002 74.1644 52.708 68.5319C62.2159 62.8994 72.4891 60.0291 83.5525 59.8454C89.606 59.8454 97.5444 61.7142 107.409 65.3869C117.247 69.072 123.563 70.9408 126.332 70.9408C128.403 70.9408 135.42 68.7556 147.315 64.3993C158.564 60.3593 168.058 58.6865 175.835 59.3454C196.91 61.0429 212.744 69.3343 223.274 84.2722C204.425 95.67 195.101 111.634 195.287 132.113C195.457 148.065 201.255 161.339 212.651 171.879C217.816 176.771 223.583 180.552 230 183.237C228.608 187.264 227.139 191.122 225.578 194.826ZM177.242 5.00142C177.242 17.5043 172.665 29.1782 163.543 39.9834C152.533 52.8287 139.217 60.2513 124.777 59.08C124.593 57.5801 124.486 56.0014 124.486 54.3425C124.486 42.3398 129.722 29.4945 139.019 18.9917C143.661 13.674 149.565 9.25237 156.724 5.72516C163.867 2.25057 170.624 0.329052 176.979 0C177.165 1.67144 177.242 3.34314 177.242 5.00142Z" fill="black"/>
</g>
<defs>
<clipPath id="clip0_522_110">
<rect width="211" height="250" fill="white" transform="translate(19)"/>
</clipPath>
</defs>
</svg>
