<svg width="250" height="250" viewBox="0 0 250 250" fill="none" xmlns="http://www.w3.org/2000/svg">
<mask id="mask0_522_78" style="mask-type:luminance" maskUnits="userSpaceOnUse" x="0" y="73" width="250" height="105">
<path d="M250 73.0774H0V177.7H250V73.0774Z" fill="white"/>
</mask>
<g mask="url(#mask0_522_78)">
<mask id="mask1_522_78" style="mask-type:luminance" maskUnits="userSpaceOnUse" x="0" y="73" width="250" height="105">
<path d="M0 73.0774H249.998V177.698H0V73.0774Z" fill="white"/>
</mask>
<g mask="url(#mask1_522_78)">
<path fill-rule="evenodd" clip-rule="evenodd" d="M221.429 177.7H28.5714C12.7929 177.7 0 164.924 0 149.166V101.611C0 85.8509 12.7929 73.0774 28.5714 73.0774H221.429C237.21 73.0774 250 85.8509 250 101.611V149.166C250 164.924 237.21 177.7 221.429 177.7Z" fill="#002568"/>
</g>
<path fill-rule="evenodd" clip-rule="evenodd" d="M42.2249 116.495C35.5202 116.495 32.3964 121.819 32.0154 126.234H52.4321C52.2821 121.973 49.3869 116.495 42.2249 116.495ZM56.3178 131.865H32.0916C32.6249 137.343 36.8154 141.982 43.6702 141.982C46.3392 141.982 49.3869 141.145 51.8988 139.547C52.4321 139.243 53.0416 139.091 53.5773 139.091C55.2535 139.091 57.0035 140.461 57.0035 142.439C57.0035 146.624 47.5559 148.526 42.8345 148.526C31.7868 148.526 23.5583 140.841 23.5583 129.202C23.5583 118.549 31.3297 109.951 42.2249 109.951C50.8321 109.951 57.0797 115.125 59.3654 123.039C59.8249 124.56 60.2797 126.31 60.2797 127.908C60.2797 130.036 58.5297 131.865 56.3178 131.865Z" fill="white"/>
<path fill-rule="evenodd" clip-rule="evenodd" d="M94.1111 122.049C92.2802 119.31 88.4733 117.179 84.6637 117.179C78.4161 117.179 74.378 122.199 74.378 129.275C74.378 136.275 78.4161 141.297 84.6637 141.297C88.4733 141.297 92.2802 139.166 94.1111 136.503V122.049ZM98.1468 148.069C95.8611 148.069 94.1111 146.243 94.1111 144.036V142.59C91.2159 146.319 87.023 148.525 82.3016 148.525C72.9302 148.525 65.9971 141.373 65.9971 129.275C65.9971 117.407 72.854 109.951 82.3016 109.951C86.873 109.951 91.1397 112.081 94.1111 115.886V100.44C94.1111 98.233 95.8614 96.4092 98.3018 96.4092C100.433 96.4092 102.263 98.233 102.263 100.44V144.036C102.263 146.243 100.433 148.069 98.1468 148.069Z" fill="white"/>
<path fill-rule="evenodd" clip-rule="evenodd" d="M139.97 148.068C137.684 148.068 135.934 146.239 135.934 144.035V142.742C133.267 145.709 128.696 148.522 122.905 148.522C114.981 148.522 111.096 144.34 111.096 136.883V114.361C111.096 112.233 112.848 110.406 115.286 110.406C117.42 110.406 119.248 112.233 119.248 114.361V133.915C119.248 139.546 122.143 141.294 126.56 141.294C130.598 141.294 134.029 139.011 135.934 136.579V114.361C135.934 112.233 137.684 110.406 140.122 110.406C142.255 110.406 144.086 112.233 144.086 114.361V144.035C144.086 146.239 142.255 148.068 139.97 148.068Z" fill="white"/>
<path fill-rule="evenodd" clip-rule="evenodd" d="M163.589 148.071C161.151 148.071 159.17 146.017 159.17 143.58V100.822C159.17 98.4636 161.151 96.4092 163.739 96.4092C166.18 96.4092 168.235 98.4636 168.235 100.822V143.58C168.235 146.017 166.18 148.071 163.589 148.071Z" fill="#53A6F0"/>
<path fill-rule="evenodd" clip-rule="evenodd" d="M199.552 104.854H189.647V139.624H199.552C210.521 139.624 216.847 131.787 216.847 122.276C216.847 112.536 210.826 104.854 199.552 104.854ZM199.552 147.611H186.066C183.021 147.611 180.581 145.102 180.581 142.135V102.34C180.581 99.3751 183.021 96.8642 186.066 96.8642H199.552C215.397 96.8642 226.216 107.364 226.216 122.276C226.216 137.265 215.397 147.611 199.552 147.611Z" fill="#53A6F0"/>
</g>
</svg>
