<svg width="250" height="250" viewBox="0 0 250 250" fill="none" xmlns="http://www.w3.org/2000/svg">
<g clip-path="url(#clip0_523_141)">
<path d="M52.8055 194.889C58.1944 198.25 67.1528 201.986 76.625 201.986C85.25 201.986 93.2639 199.486 99.9028 195.222C99.9028 195.222 99.9167 195.222 99.9305 195.208L125 179.542V236.111C121.028 236.111 117.028 235.028 113.556 232.861L52.8055 194.889Z" fill="#225086"/>
<path d="M109.069 20.9306L4.90273 138.431C-3.13894 147.514 -1.04172 161.236 9.38884 167.75C9.38884 167.75 47.9444 191.847 52.8055 194.889C58.1944 198.25 67.1527 201.986 76.6249 201.986C85.2499 201.986 93.2638 199.486 99.9027 195.222C99.9027 195.222 99.9166 195.222 99.9305 195.208L125 179.542L64.3888 141.653L125.014 73.2639V13.8889C119.125 13.8889 113.236 16.2361 109.069 20.9306Z" fill="#66DDFF"/>
<path d="M64.3889 141.653L65.1111 142.097L125 179.542H125.014V73.2778L125 73.2639L64.3889 141.653Z" fill="#CBF8FF"/>
<path d="M240.611 167.75C251.042 161.236 253.139 147.514 245.097 138.431L176.75 61.3333C171.236 58.7639 165.056 57.2917 158.514 57.2917C145.667 57.2917 134.181 62.8333 126.542 71.5417L125.028 73.25L185.639 141.639L125.014 179.528V236.097C129 236.097 132.972 235.014 136.444 232.847L240.611 167.736V167.75Z" fill="#074793"/>
<path d="M125.014 13.8889V73.2639L126.528 71.5555C134.167 62.8472 145.653 57.3055 158.5 57.3055C165.056 57.3055 171.222 58.7917 176.736 61.3472L140.917 20.9444C136.764 16.25 130.875 13.9028 125 13.9028L125.014 13.8889Z" fill="#0294E4"/>
<path d="M185.625 141.653L125.014 73.2778V179.528L185.625 141.653Z" fill="#96BCC2"/>
</g>
<defs>
<clipPath id="clip0_523_141">
<rect width="250" height="250" fill="white"/>
</clipPath>
</defs>
</svg>
