<svg xmlns="http://www.w3.org/2000/svg" width="256" height="256" viewBox="0 0 256 256"><path fill="#F8AF00" d="M36.9777778,19.9111111 C42.4760793,19.9111111 46.9333333,15.4538571 46.9333333,9.95555556 C46.9333333,4.45725405 42.4760793,-5.68434189e-14 36.9777778,-5.68434189e-14 C31.4794763,-5.68434189e-14 27.0222222,4.45725405 27.0222222,9.95555556 C27.0222222,15.4538571 31.4794763,19.9111111 36.9777778,19.9111111 Z M82.4888889,19.9111111 C87.9871904,19.9111111 92.4444444,15.4538571 92.4444444,9.95555556 C92.4444444,4.45725405 87.9871904,-5.68434189e-14 82.4888889,-5.68434189e-14 C76.9905874,-5.68434189e-14 72.5333333,4.45725405 72.5333333,9.95555556 C72.5333333,15.4538571 76.9905874,19.9111111 82.4888889,19.9111111 Z M128,19.9111111 C133.498302,19.9111111 137.955556,15.4538571 137.955556,9.95555556 C137.955556,4.45725405 133.498302,-5.68434189e-14 128,-5.68434189e-14 C122.501698,-5.68434189e-14 118.044444,4.45725405 118.044444,9.95555556 C118.044444,15.4538571 122.501698,19.9111111 128,19.9111111 Z M173.511111,19.9111111 C179.009413,19.9111111 183.466667,15.4538571 183.466667,9.95555556 C183.466667,4.45725405 179.009413,-5.68434189e-14 173.511111,-5.68434189e-14 C168.01281,-5.68434189e-14 163.555556,4.45725405 163.555556,9.95555556 C163.555556,15.4538571 168.01281,19.9111111 173.511111,19.9111111 Z M219.022222,19.9111111 C224.520524,19.9111111 228.977778,15.4538571 228.977778,9.95555556 C228.977778,4.45725405 224.520524,-5.68434189e-14 219.022222,-5.68434189e-14 C213.523921,-5.68434189e-14 209.066667,4.45725405 209.066667,9.95555556 C209.066667,15.4538571 213.523921,19.9111111 219.022222,19.9111111 Z M36.9777778,67.1288889 C42.4760793,67.1288889 46.9333333,62.6716348 46.9333333,57.1733333 C46.9333333,51.6750318 42.4760793,47.2177778 36.9777778,47.2177778 C31.4794763,47.2177778 27.0222222,51.6750318 27.0222222,57.1733333 C27.0222222,62.6716348 31.4794763,67.1288889 36.9777778,67.1288889 Z M82.4888889,67.1288889 C87.9871904,67.1288889 92.4444444,62.6716348 92.4444444,57.1733333 C92.4444444,51.6750318 87.9871904,47.2177778 82.4888889,47.2177778 C76.9905874,47.2177778 72.5333333,51.6750318 72.5333333,57.1733333 C72.5333333,62.6716348 76.9905874,67.1288889 82.4888889,67.1288889 Z M128,67.1288889 C133.498302,67.1288889 137.955556,62.6716348 137.955556,57.1733333 C137.955556,51.6750318 133.498302,47.2177778 128,47.2177778 C122.501698,47.2177778 118.044444,51.6750318 118.044444,57.1733333 C118.044444,62.6716348 122.501698,67.1288889 128,67.1288889 Z M173.511111,67.1288889 C179.009413,67.1288889 183.466667,62.6716348 183.466667,57.1733333 C183.466667,51.6750318 179.009413,47.2177778 173.511111,47.2177778 C168.01281,47.2177778 163.555556,51.6750318 163.555556,57.1733333 C163.555556,62.6716348 168.01281,67.1288889 173.511111,67.1288889 Z M219.022222,67.1288889 C224.520524,67.1288889 228.977778,62.6716348 228.977778,57.1733333 C228.977778,51.6750318 224.520524,47.2177778 219.022222,47.2177778 C213.523921,47.2177778 209.066667,51.6750318 209.066667,57.1733333 C209.066667,62.6716348 213.523921,67.1288889 219.022222,67.1288889 Z M36.9777778,114.346667 C42.4760793,114.346667 46.9333333,109.889413 46.9333333,104.391111 C46.9333333,98.8928096 42.4760793,94.4355556 36.9777778,94.4355556 C31.4794763,94.4355556 27.0222222,98.8928096 27.0222222,104.391111 C27.0222222,109.889413 31.4794763,114.346667 36.9777778,114.346667 Z M82.4888889,114.346667 C87.9871904,114.346667 92.4444444,109.889413 92.4444444,104.391111 C92.4444444,98.8928096 87.9871904,94.4355556 82.4888889,94.4355556 C76.9905874,94.4355556 72.5333333,98.8928096 72.5333333,104.391111 C72.5333333,109.889413 76.9905874,114.346667 82.4888889,114.346667 Z M173.511111,114.346667 C179.009413,114.346667 183.466667,109.889413 183.466667,104.391111 C183.466667,98.8928096 179.009413,94.4355556 173.511111,94.4355556 C168.01281,94.4355556 163.555556,98.8928096 163.555556,104.391111 C163.555556,109.889413 168.01281,114.346667 173.511111,114.346667 Z M219.022222,114.346667 C224.520524,114.346667 228.977778,109.889413 228.977778,104.391111 C228.977778,98.8928096 224.520524,94.4355556 219.022222,94.4355556 C213.523921,94.4355556 209.066667,98.8928096 209.066667,104.391111 C209.066667,109.889413 213.523921,114.346667 219.022222,114.346667 Z M36.9777778,161.564444 C42.4760793,161.564444 46.9333333,157.10719 46.9333333,151.608889 C46.9333333,146.110587 42.4760793,141.653333 36.9777778,141.653333 C31.4794763,141.653333 27.0222222,146.110587 27.0222222,151.608889 C27.0222222,157.10719 31.4794763,161.564444 36.9777778,161.564444 Z M82.4888889,161.564444 C87.9871904,161.564444 92.4444444,157.10719 92.4444444,151.608889 C92.4444444,146.110587 87.9871904,141.653333 82.4888889,141.653333 C76.9905874,141.653333 72.5333333,146.110587 72.5333333,151.608889 C72.5333333,157.10719 76.9905874,161.564444 82.4888889,161.564444 Z M173.511111,161.564444 C179.009413,161.564444 183.466667,157.10719 183.466667,151.608889 C183.466667,146.110587 179.009413,141.653333 173.511111,141.653333 C168.01281,141.653333 163.555556,146.110587 163.555556,151.608889 C163.555556,157.10719 168.01281,161.564444 173.511111,161.564444 Z M219.022222,161.564444 C224.520524,161.564444 228.977778,157.10719 228.977778,151.608889 C228.977778,146.110587 224.520524,141.653333 219.022222,141.653333 C213.523921,141.653333 209.066667,146.110587 209.066667,151.608889 C209.066667,157.10719 213.523921,161.564444 219.022222,161.564444 Z M36.9777778,208.782222 C42.4760793,208.782222 46.9333333,204.324968 46.9333333,198.826667 C46.9333333,193.328365 42.4760793,188.871111 36.9777778,188.871111 C31.4794763,188.871111 27.0222222,193.328365 27.0222222,198.826667 C27.0222222,204.324968 31.4794763,208.782222 36.9777778,208.782222 Z M82.4888889,208.782222 C87.9871904,208.782222 92.4444444,204.324968 92.4444444,198.826667 C92.4444444,193.328365 87.9871904,188.871111 82.4888889,188.871111 C76.9905874,188.871111 72.5333333,193.328365 72.5333333,198.826667 C72.5333333,204.324968 76.9905874,208.782222 82.4888889,208.782222 Z M128,208.782222 C133.498302,208.782222 137.955556,204.324968 137.955556,198.826667 C137.955556,193.328365 133.498302,188.871111 128,188.871111 C122.501698,188.871111 118.044444,193.328365 118.044444,198.826667 C118.044444,204.324968 122.501698,208.782222 128,208.782222 Z M173.511111,208.782222 C179.009413,208.782222 183.466667,204.324968 183.466667,198.826667 C183.466667,193.328365 179.009413,188.871111 173.511111,188.871111 C168.01281,188.871111 163.555556,193.328365 163.555556,198.826667 C163.555556,204.324968 168.01281,208.782222 173.511111,208.782222 Z M219.022222,208.782222 C224.520524,208.782222 228.977778,204.324968 228.977778,198.826667 C228.977778,193.328365 224.520524,188.871111 219.022222,188.871111 C213.523921,188.871111 209.066667,193.328365 209.066667,198.826667 C209.066667,204.324968 213.523921,208.782222 219.022222,208.782222 Z M36.9777778,256 C42.4760793,256 46.9333333,251.542746 46.9333333,246.044444 C46.9333333,240.546143 42.4760793,236.088889 36.9777778,236.088889 C31.4794763,236.088889 27.0222222,240.546143 27.0222222,246.044444 C27.0222222,251.542746 31.4794763,256 36.9777778,256 Z M82.4888889,256 C87.9871904,256 92.4444444,251.542746 92.4444444,246.044444 C92.4444444,240.546143 87.9871904,236.088889 82.4888889,236.088889 C76.9905874,236.088889 72.5333333,240.546143 72.5333333,246.044444 C72.5333333,251.542746 76.9905874,256 82.4888889,256 Z M128,256 C133.498302,256 137.955556,251.542746 137.955556,246.044444 C137.955556,240.546143 133.498302,236.088889 128,236.088889 C122.501698,236.088889 118.044444,240.546143 118.044444,246.044444 C118.044444,251.542746 122.501698,256 128,256 Z M173.511111,256 C179.009413,256 183.466667,251.542746 183.466667,246.044444 C183.466667,240.546143 179.009413,236.088889 173.511111,236.088889 C168.01281,236.088889 163.555556,240.546143 163.555556,246.044444 C163.555556,251.542746 168.01281,256 173.511111,256 Z M219.022222,256 C224.520524,256 228.977778,251.542746 228.977778,246.044444 C228.977778,240.546143 224.520524,236.088889 219.022222,236.088889 C213.523921,236.088889 209.066667,240.546143 209.066667,246.044444 C209.066667,251.542746 213.523921,256 219.022222,256 Z"/></svg>