<svg xmlns="http://www.w3.org/2000/svg" width="170" height="64" viewBox="0 0 170 64"><g fill="none" fill-rule="evenodd"><g fill-rule="nonzero" transform="translate(68 6)"><path fill="#F8AF00" d="M71.2253539,12.974028 L68.724185,9.50379786 C68.3787439,9.56935637 67.8824455,9.58902392 67.4736006,9.58902392 L65.6851774,9.58902392 L65.6851774,15.4084338 L63.3567291,15.4084338 L63.3567291,0.174822679 L68.5951912,0.174822679 C71.6560621,0.174822679 73.8117898,1.61929506 73.8117898,4.78577082 C73.8117898,6.55366516 72.9700503,8.12488398 71.0526333,8.94436529 L73.208361,11.8311248 C74.1790944,13.1029598 75.2788216,13.5771663 76.3348221,13.8568826 L75.8166603,15.6444444 C74.3518149,15.5832565 72.6267955,14.8271484 71.2253539,12.974028 Z M67.6047808,7.80364731 C69.9113657,7.80364731 71.4002608,7.02787168 71.4002608,4.895035 C71.4002608,2.80590399 70.3442603,2.03012835 68.1229425,2.03012835 L65.6873637,2.03012835 L65.6873637,7.80364731 L67.6047808,7.80364731 Z M78.199767,0.968080582 L80.3861034,0.968080582 L80.3861034,15.4084338 L78.199767,15.4084338 L78.199767,0.968080582 Z"/><path fill="#183D76" d="M0,0 L2.12511899,0 L2.12511899,5.47413512 C2.88159139,4.92344368 4.29177838,3.96191895 5.94683504,3.96191895 C9.29848876,3.96191895 9.48214102,6.16686998 9.48214102,8.25163043 L9.48214102,15.3996927 L7.39856242,15.3996927 L7.39856242,8.55757011 C7.39856242,6.73941426 7.11215235,5.81940991 5.31498382,5.81940991 C4.11031246,5.81940991 2.63890805,6.69789387 2.12730533,6.98416601 L2.12730533,15.3996927 L0.00218633641,15.3996927 L0.00218633641,0 L0,0 Z M11.6968998,10.0085983 C11.6968998,5.49380267 13.9444536,3.96191895 16.9069395,3.96191895 C19.8912887,3.96191895 21.1790408,5.96363862 21.1790408,9.5780975 L21.1790408,10.3342056 L13.8416958,10.3342056 C13.8832362,13.3783055 15.5164295,13.867809 17.6830889,13.867809 C18.4811017,13.867809 19.8694253,13.5815368 20.5646803,13.4176406 L20.9123078,15.1134206 C20.3001336,15.3166519 18.8899466,15.6444444 17.1933495,15.6444444 C13.8438822,15.6444444 11.6968998,14.3376449 11.6968998,10.0085983 Z M18.951164,8.84384225 C18.9708411,6.86179013 18.236232,5.51347022 16.6620698,5.51347022 C15.129448,5.51347022 14.0472115,6.65637348 13.8832362,8.84384225 L18.951164,8.84384225 Z M22.460234,12.3577781 C22.460234,9.59995033 24.9526575,9.00773851 26.8941242,8.98807096 L29.3471937,8.94655057 L29.3471937,7.70093899 C29.3471937,6.14938772 28.5295038,5.82159519 26.7323353,5.82159519 C25.6697758,5.82159519 24.4432411,6.16905527 23.7895265,6.33295153 L23.3610046,4.72021232 C24.0759366,4.41427263 25.5058006,3.98595707 27.2023976,3.98595707 C29.9615542,3.98595707 31.4329586,4.84477348 31.4329586,7.13058 L31.4329586,12.9718427 C31.4329586,13.6667629 31.922698,13.8088063 32.4539777,13.8503267 L32.3512199,15.5045863 C32.209108,15.5242539 32.0648098,15.5242539 31.9008346,15.5242539 C30.8579521,15.5242539 29.6926348,15.1571262 29.5089826,14.1759339 C28.8968084,14.6042495 27.7511681,15.5657742 25.8315647,15.5657742 C23.7086321,15.563589 22.460234,14.4600208 22.460234,12.3577781 Z M29.3471937,12.888802 L29.3471937,10.314538 L26.9553416,10.4172464 C25.4227198,10.4587667 24.5438126,11.1515016 24.5438126,12.1742143 C24.5438126,13.4416787 25.2806079,13.8699943 26.3431674,13.8699943 C27.5303481,13.867809 28.9186717,13.0723658 29.3471937,12.888802 Z M34.6075191,0 L36.7326381,0 L36.7326381,15.401878 L34.6075191,15.401878 L34.6075191,0 Z M40.0952235,12.1938818 L40.0952235,5.94397107 L38.4598438,5.94397107 L38.4598438,4.24819109 L40.0952235,4.24819109 L40.0952235,1.96019928 L42.2006654,1.96019928 L42.2006654,4.24819109 L45.674754,4.24819109 L45.674754,5.94397107 L42.2006654,5.94397107 L42.2006654,12.1742143 C42.2006654,13.5640546 42.6095103,13.7869535 44.0809148,13.7869535 C44.7346293,13.7869535 45.8387292,13.5618693 46.0223815,13.5006813 L46.3087916,15.2576493 C45.8190522,15.3996927 44.8570642,15.6247769 44.1224551,15.6247769 C42.0170132,15.6247769 40.0952235,15.6051093 40.0952235,12.1938818 Z M47.9922706,0 L50.1173896,0 L50.1173896,5.47413512 C50.873862,4.92344368 52.284049,3.96191895 53.9391056,3.96191895 C57.2907594,3.96191895 57.4744116,6.16686998 57.4744116,8.25163043 L57.4744116,15.3996927 L55.390833,15.3996927 L55.390833,8.55757011 C55.390833,6.73941426 55.1044229,5.81940991 53.3072544,5.81940991 C52.1025831,5.81940991 50.6311786,6.69789387 50.1195759,6.98416601 L50.1195759,15.3996927 L47.9944569,15.3996927 L47.9944569,0 L47.9922706,0 Z"/></g><path fill="#F8AF00" fill-rule="nonzero" d="M2.49008811,4.97777778 C3.86532579,4.97777778 4.98017621,3.86346427 4.98017621,2.48888889 C4.98017621,1.11431351 3.86532579,0 2.49008811,0 C1.11485042,0 0,1.11431351 0,2.48888889 C0,3.86346427 1.11485042,4.97777778 2.49008811,4.97777778 Z M13.873348,4.97777778 C15.2485857,4.97777778 16.3634361,3.86346427 16.3634361,2.48888889 C16.3634361,1.11431351 15.2485857,0 13.873348,0 C12.4981103,0 11.3832599,1.11431351 11.3832599,2.48888889 C11.3832599,3.86346427 12.4981103,4.97777778 13.873348,4.97777778 Z M25.2566079,4.97777778 C26.6318456,4.97777778 27.746696,3.86346427 27.746696,2.48888889 C27.746696,1.11431351 26.6318456,0 25.2566079,0 C23.8813702,0 22.7665198,1.11431351 22.7665198,2.48888889 C22.7665198,3.86346427 23.8813702,4.97777778 25.2566079,4.97777778 Z M36.6398678,4.97777778 C38.0151055,4.97777778 39.1299559,3.86346427 39.1299559,2.48888889 C39.1299559,1.11431351 38.0151055,0 36.6398678,0 C35.2646302,0 34.1497797,1.11431351 34.1497797,2.48888889 C34.1497797,3.86346427 35.2646302,4.97777778 36.6398678,4.97777778 Z M48.0231278,4.97777778 C49.3983654,4.97777778 50.5132159,3.86346427 50.5132159,2.48888889 C50.5132159,1.11431351 49.3983654,0 48.0231278,0 C46.6478901,0 45.5330396,1.11431351 45.5330396,2.48888889 C45.5330396,3.86346427 46.6478901,4.97777778 48.0231278,4.97777778 Z M2.49008811,16.7822222 C3.86532579,16.7822222 4.98017621,15.6679087 4.98017621,14.2933333 C4.98017621,12.918758 3.86532579,11.8044444 2.49008811,11.8044444 C1.11485042,11.8044444 0,12.918758 0,14.2933333 C0,15.6679087 1.11485042,16.7822222 2.49008811,16.7822222 Z M13.873348,16.7822222 C15.2485857,16.7822222 16.3634361,15.6679087 16.3634361,14.2933333 C16.3634361,12.918758 15.2485857,11.8044444 13.873348,11.8044444 C12.4981103,11.8044444 11.3832599,12.918758 11.3832599,14.2933333 C11.3832599,15.6679087 12.4981103,16.7822222 13.873348,16.7822222 Z M25.2566079,16.7822222 C26.6318456,16.7822222 27.746696,15.6679087 27.746696,14.2933333 C27.746696,12.918758 26.6318456,11.8044444 25.2566079,11.8044444 C23.8813702,11.8044444 22.7665198,12.918758 22.7665198,14.2933333 C22.7665198,15.6679087 23.8813702,16.7822222 25.2566079,16.7822222 Z M36.6398678,16.7822222 C38.0151055,16.7822222 39.1299559,15.6679087 39.1299559,14.2933333 C39.1299559,12.918758 38.0151055,11.8044444 36.6398678,11.8044444 C35.2646302,11.8044444 34.1497797,12.918758 34.1497797,14.2933333 C34.1497797,15.6679087 35.2646302,16.7822222 36.6398678,16.7822222 Z M48.0231278,16.7822222 C49.3983654,16.7822222 50.5132159,15.6679087 50.5132159,14.2933333 C50.5132159,12.918758 49.3983654,11.8044444 48.0231278,11.8044444 C46.6478901,11.8044444 45.5330396,12.918758 45.5330396,14.2933333 C45.5330396,15.6679087 46.6478901,16.7822222 48.0231278,16.7822222 Z M2.49008811,28.5866667 C3.86532579,28.5866667 4.98017621,27.4723532 4.98017621,26.0977778 C4.98017621,24.7232024 3.86532579,23.6088889 2.49008811,23.6088889 C1.11485042,23.6088889 0,24.7232024 0,26.0977778 C0,27.4723532 1.11485042,28.5866667 2.49008811,28.5866667 Z M13.873348,28.5866667 C15.2485857,28.5866667 16.3634361,27.4723532 16.3634361,26.0977778 C16.3634361,24.7232024 15.2485857,23.6088889 13.873348,23.6088889 C12.4981103,23.6088889 11.3832599,24.7232024 11.3832599,26.0977778 C11.3832599,27.4723532 12.4981103,28.5866667 13.873348,28.5866667 Z M36.6398678,28.5866667 C38.0151055,28.5866667 39.1299559,27.4723532 39.1299559,26.0977778 C39.1299559,24.7232024 38.0151055,23.6088889 36.6398678,23.6088889 C35.2646302,23.6088889 34.1497797,24.7232024 34.1497797,26.0977778 C34.1497797,27.4723532 35.2646302,28.5866667 36.6398678,28.5866667 Z M48.0231278,28.5866667 C49.3983654,28.5866667 50.5132159,27.4723532 50.5132159,26.0977778 C50.5132159,24.7232024 49.3983654,23.6088889 48.0231278,23.6088889 C46.6478901,23.6088889 45.5330396,24.7232024 45.5330396,26.0977778 C45.5330396,27.4723532 46.6478901,28.5866667 48.0231278,28.5866667 Z M2.49008811,40.3911111 C3.86532579,40.3911111 4.98017621,39.2767976 4.98017621,37.9022222 C4.98017621,36.5276468 3.86532579,35.4133333 2.49008811,35.4133333 C1.11485042,35.4133333 0,36.5276468 0,37.9022222 C0,39.2767976 1.11485042,40.3911111 2.49008811,40.3911111 Z M13.873348,40.3911111 C15.2485857,40.3911111 16.3634361,39.2767976 16.3634361,37.9022222 C16.3634361,36.5276468 15.2485857,35.4133333 13.873348,35.4133333 C12.4981103,35.4133333 11.3832599,36.5276468 11.3832599,37.9022222 C11.3832599,39.2767976 12.4981103,40.3911111 13.873348,40.3911111 Z M36.6398678,40.3911111 C38.0151055,40.3911111 39.1299559,39.2767976 39.1299559,37.9022222 C39.1299559,36.5276468 38.0151055,35.4133333 36.6398678,35.4133333 C35.2646302,35.4133333 34.1497797,36.5276468 34.1497797,37.9022222 C34.1497797,39.2767976 35.2646302,40.3911111 36.6398678,40.3911111 Z M48.0231278,40.3911111 C49.3983654,40.3911111 50.5132159,39.2767976 50.5132159,37.9022222 C50.5132159,36.5276468 49.3983654,35.4133333 48.0231278,35.4133333 C46.6478901,35.4133333 45.5330396,36.5276468 45.5330396,37.9022222 C45.5330396,39.2767976 46.6478901,40.3911111 48.0231278,40.3911111 Z M2.49008811,52.1955556 C3.86532579,52.1955556 4.98017621,51.081242 4.98017621,49.7066667 C4.98017621,48.3320913 3.86532579,47.2177778 2.49008811,47.2177778 C1.11485042,47.2177778 0,48.3320913 0,49.7066667 C0,51.081242 1.11485042,52.1955556 2.49008811,52.1955556 Z M13.873348,52.1955556 C15.2485857,52.1955556 16.3634361,51.081242 16.3634361,49.7066667 C16.3634361,48.3320913 15.2485857,47.2177778 13.873348,47.2177778 C12.4981103,47.2177778 11.3832599,48.3320913 11.3832599,49.7066667 C11.3832599,51.081242 12.4981103,52.1955556 13.873348,52.1955556 Z M25.2566079,52.1955556 C26.6318456,52.1955556 27.746696,51.081242 27.746696,49.7066667 C27.746696,48.3320913 26.6318456,47.2177778 25.2566079,47.2177778 C23.8813702,47.2177778 22.7665198,48.3320913 22.7665198,49.7066667 C22.7665198,51.081242 23.8813702,52.1955556 25.2566079,52.1955556 Z M36.6398678,52.1955556 C38.0151055,52.1955556 39.1299559,51.081242 39.1299559,49.7066667 C39.1299559,48.3320913 38.0151055,47.2177778 36.6398678,47.2177778 C35.2646302,47.2177778 34.1497797,48.3320913 34.1497797,49.7066667 C34.1497797,51.081242 35.2646302,52.1955556 36.6398678,52.1955556 Z M48.0231278,52.1955556 C49.3983654,52.1955556 50.5132159,51.081242 50.5132159,49.7066667 C50.5132159,48.3320913 49.3983654,47.2177778 48.0231278,47.2177778 C46.6478901,47.2177778 45.5330396,48.3320913 45.5330396,49.7066667 C45.5330396,51.081242 46.6478901,52.1955556 48.0231278,52.1955556 Z M2.49008811,64 C3.86532579,64 4.98017621,62.8856865 4.98017621,61.5111111 C4.98017621,60.1365357 3.86532579,59.0222222 2.49008811,59.0222222 C1.11485042,59.0222222 0,60.1365357 0,61.5111111 C0,62.8856865 1.11485042,64 2.49008811,64 Z M13.873348,64 C15.2485857,64 16.3634361,62.8856865 16.3634361,61.5111111 C16.3634361,60.1365357 15.2485857,59.0222222 13.873348,59.0222222 C12.4981103,59.0222222 11.3832599,60.1365357 11.3832599,61.5111111 C11.3832599,62.8856865 12.4981103,64 13.873348,64 Z M25.2566079,64 C26.6318456,64 27.746696,62.8856865 27.746696,61.5111111 C27.746696,60.1365357 26.6318456,59.0222222 25.2566079,59.0222222 C23.8813702,59.0222222 22.7665198,60.1365357 22.7665198,61.5111111 C22.7665198,62.8856865 23.8813702,64 25.2566079,64 Z M36.6398678,64 C38.0151055,64 39.1299559,62.8856865 39.1299559,61.5111111 C39.1299559,60.1365357 38.0151055,59.0222222 36.6398678,59.0222222 C35.2646302,59.0222222 34.1497797,60.1365357 34.1497797,61.5111111 C34.1497797,62.8856865 35.2646302,64 36.6398678,64 Z M48.0231278,64 C49.3983654,64 50.5132159,62.8856865 50.5132159,61.5111111 C50.5132159,60.1365357 49.3983654,59.0222222 48.0231278,59.0222222 C46.6478901,59.0222222 45.5330396,60.1365357 45.5330396,61.5111111 C45.5330396,62.8856865 46.6478901,64 48.0231278,64 Z"/></g></svg>